<?xml version="1.0" standalone="no"?>
<!DOCTYPE svg PUBLIC "-//W3C//DTD SVG 20010904//EN"
 "http://www.w3.org/TR/2001/REC-SVG-20010904/DTD/svg10.dtd">
<svg version="1.0" xmlns="http://www.w3.org/2000/svg"
 width="317.000000pt" height="360.000000pt" viewBox="0 0 317.000000 360.000000"
 preserveAspectRatio="xMidYMid meet">

<g transform="translate(0.000000,360.000000) scale(0.100000,-0.100000)"
fill="#000000" stroke="none">
<path d="M0 2964 c0 -583 1 -636 16 -630 37 14 44 -11 44 -156 0 -77 5 -148
10 -158 6 -11 11 -58 11 -105 1 -94 -10 -117 -57 -129 l-24 -6 0 -890 0 -890
1585 0 1585 0 0 1655 c0 910 -2 1655 -5 1655 -3 0 -13 -5 -23 -11 -13 -8 -40
-9 -96 -1 -82 11 -113 28 -102 57 5 15 20 17 116 13 l110 -3 0 117 0 118
-1585 0 -1585 0 0 -636z m2726 261 c3 -19 3 -45 0 -58 -4 -12 -9 -35 -12 -52
-3 -16 -12 -45 -21 -64 -26 -56 -32 -121 -19 -178 8 -31 7 -32 -30 -39 l-39
-7 32 -11 c45 -16 47 -21 22 -55 -29 -40 -68 -43 -63 -5 1 14 -2 38 -8 54 -8
26 -14 29 -49 27 -30 -1 -51 -10 -79 -34 -48 -41 -100 -55 -100 -26 0 27 19
43 51 43 15 0 34 6 41 13 7 7 25 21 41 31 15 10 27 23 27 29 0 6 9 20 19 31
46 50 132 227 157 324 7 24 23 11 30 -23z m-2580 -21 c36 -37 124 -167 124
-184 0 -5 6 -13 13 -17 7 -4 43 -46 80 -93 80 -101 153 -159 240 -190 17 -6
27 -17 27 -30 0 -11 -2 -20 -5 -20 -15 0 -63 31 -68 43 -5 14 -81 58 -95 55
-37 -7 -182 101 -182 137 0 6 -9 16 -21 23 -12 7 -19 16 -16 18 3 3 -6 17 -19
31 -29 31 -35 41 -91 152 -36 70 -45 111 -26 111 3 0 20 -16 39 -36z m1974
-484 c0 -5 -5 -10 -11 -10 -5 0 -7 5 -4 10 3 6 8 10 11 10 2 0 4 -4 4 -10z
m493 -12 c34 -16 37 -54 5 -64 -13 -4 -24 -2 -26 5 -2 6 -7 9 -12 6 -8 -5 -50
45 -50 59 0 11 55 6 83 -6z m-1953 -19 c0 -5 -4 -9 -10 -9 -5 0 -10 7 -10 16
0 8 5 12 10 9 6 -3 10 -10 10 -16z m1760 -40 c0 -10 38 -9 105 3 16 2 20 -3
20 -22 0 -15 7 -26 18 -28 9 -2 17 -9 17 -15 0 -7 3 -22 6 -33 5 -17 0 -24
-25 -32 -17 -6 -31 -18 -31 -26 0 -9 -5 -16 -11 -16 -6 0 -17 -7 -26 -15 -13
-14 -13 -22 -2 -60 7 -25 17 -45 21 -45 4 0 8 -13 8 -28 0 -15 5 -33 10 -38
13 -13 -7 -77 -21 -68 -5 3 -9 -2 -9 -10 0 -9 -6 -16 -12 -16 -13 0 -38 -44
-38 -67 0 -7 -11 -18 -25 -25 -13 -6 -22 -15 -19 -19 7 -11 -30 -29 -63 -30
-26 -1 -26 -1 -5 -7 13 -4 23 -10 23 -14 -1 -5 -1 -12 -1 -18 0 -5 -5 -10 -11
-10 -5 0 -7 5 -3 11 4 7 -1 10 -11 7 -24 -4 -30 -23 -8 -25 10 0 37 -3 60 -6
23 -2 40 0 37 4 -3 5 10 25 29 44 37 38 71 47 65 18 -2 -10 7 -26 20 -37 14
-11 19 -21 13 -25 -5 -4 -11 -26 -12 -49 -2 -24 -9 -48 -16 -54 -7 -6 -13 -27
-13 -47 0 -20 -5 -42 -12 -49 -8 -8 -8 -15 2 -27 10 -12 10 -15 -2 -15 -16 0
-17 -4 -23 -65 -4 -46 -19 -90 -34 -99 -19 -12 -45 -80 -43 -107 2 -15 -1 -30
-7 -34 -6 -3 -11 -17 -11 -30 0 -13 -5 -27 -11 -31 -8 -4 -5 -10 7 -17 17 -10
17 -11 -1 -18 -17 -6 -16 -8 10 -14 71 -16 79 -24 18 -18 -70 6 -89 -4 -99
-54 -7 -35 0 -42 89 -77 81 -31 198 -108 247 -162 l35 -38 -43 38 c-24 21 -71
55 -103 76 -60 38 -196 100 -221 100 -13 0 -29 -31 -48 -93 -7 -22 -4 -33 16
-56 28 -34 32 -51 7 -29 -33 28 -47 33 -40 14 6 -15 3 -17 -24 -11 -24 5 -36
2 -55 -16 -13 -12 -24 -28 -24 -35 0 -19 -29 -44 -44 -38 -19 7 -96 -47 -96
-68 0 -13 -8 -18 -29 -18 -56 0 -91 -12 -91 -31 0 -10 -5 -29 -11 -43 -12 -25
-43 -33 -143 -39 -29 -1 -41 -7 -47 -23 -10 -28 -35 -37 -60 -21 -16 10 -21 9
-28 -2 -6 -9 -11 -10 -15 -2 -11 17 -24 13 -32 -11 -5 -18 -8 -19 -15 -6 -12
21 -139 25 -139 5 0 -8 -12 -19 -26 -26 -15 -6 -24 -15 -20 -18 8 -9 -24 -43
-41 -43 -8 0 -13 11 -13 27 0 27 -1 27 -27 -12 l-26 -39 -11 25 c-14 34 -16
35 -26 19 -8 -13 -10 -12 -10 3 0 10 -8 17 -20 17 -13 0 -18 5 -14 15 8 20 -5
19 -28 -2 -10 -9 -18 -29 -18 -45 0 -37 -24 -33 -28 5 -4 32 -9 33 -30 6 -21
-25 -56 -16 -49 12 5 20 -3 25 -18 10 -6 -5 -30 -6 -55 -2 -37 5 -46 10 -48
29 -4 27 -12 28 -44 2 -27 -21 -38 -18 -38 12 0 10 -3 17 -7 16 -5 -1 -18 1
-30 6 -19 6 -21 11 -12 33 12 33 4 41 -19 20 -22 -20 -80 -23 -79 -4 1 35 -5
47 -23 47 -24 0 -25 8 -4 39 16 22 16 23 -5 16 -28 -9 -46 2 -31 20 9 11 7 12
-9 8 -12 -3 -18 -9 -15 -14 3 -5 0 -9 -5 -9 -6 0 -11 8 -11 18 0 10 -8 28 -17
42 -12 17 -13 25 -5 28 19 6 14 19 -9 25 -16 4 -19 11 -14 26 4 14 2 21 -7 21
-15 0 -38 45 -38 75 0 12 -7 30 -15 41 -24 32 -17 41 38 55 28 6 57 18 62 26
14 19 72 25 88 9 21 -21 87 9 87 40 0 17 -4 22 -15 18 -11 -5 -13 -2 -8 12 5
14 3 16 -11 11 -13 -5 -17 -3 -13 6 6 17 -32 53 -52 49 -9 -3 -12 3 -8 17 3
15 1 18 -12 14 -15 -5 -15 -4 1 12 22 24 88 13 95 -16 5 -19 37 -31 120 -44
33 -5 43 -11 43 -26 0 -10 3 -18 8 -17 15 5 71 -25 65 -35 -6 -10 3 -9 83 8
24 5 26 4 12 -5 -10 -6 -18 -18 -18 -25 0 -8 -4 -15 -10 -15 -20 0 -9 -18 15
-24 30 -8 65 8 65 29 0 8 9 15 19 15 11 0 23 5 26 11 4 6 13 8 20 5 8 -3 18 1
25 8 14 18 -33 31 -60 16 -10 -5 -29 -10 -42 -9 -16 0 -12 4 17 13 39 13 40
13 15 23 -19 8 -36 7 -70 -6 -25 -9 -57 -15 -72 -13 -24 3 -28 8 -30 35 0 18
0 43 1 56 2 18 -2 22 -13 18 -9 -4 -16 -2 -16 3 0 6 7 10 15 10 8 0 15 5 15
10 0 6 6 10 13 10 6 0 25 7 42 16 16 8 40 12 53 9 15 -4 21 -2 17 5 -9 14 -45
13 -75 -3 -42 -22 -90 -29 -90 -13 0 19 25 38 47 36 33 -4 41 0 46 21 4 14 11
20 21 16 8 -3 18 -2 22 4 11 19 -3 20 -47 5 -43 -15 -89 -12 -89 5 0 13 14 11
28 -3 9 -9 15 -9 23 -1 9 9 3 17 -21 31 l-32 20 51 7 c28 4 51 11 51 17 0 6
-11 8 -24 4 -14 -3 -28 -1 -31 4 -4 6 -14 9 -22 8 -10 -2 -19 7 -24 26 -5 16
-14 33 -21 37 -18 12 -40 11 -33 -1 3 -5 -5 -9 -17 -8 -42 2 -58 -2 -58 -13 0
-6 9 -9 20 -6 11 3 20 4 20 2 0 -2 2 -9 5 -17 4 -9 -4 -13 -25 -14 -16 -1 -27
3 -24 7 3 5 1 9 -3 9 -5 0 -18 7 -29 15 -18 14 -18 14 2 9 17 -4 25 1 37 24
13 27 13 31 0 36 -23 9 -35 7 -28 -4 7 -11 -22 -26 -32 -16 -4 3 -1 12 5 18 7
7 12 21 12 33 0 11 9 26 20 33 11 7 20 21 20 32 0 17 5 19 24 14 18 -4 27 -1
35 14 6 11 22 22 35 24 23 5 26 0 45 -61 35 -115 111 -181 228 -200 49 -8 75
-7 124 6 44 11 64 12 72 4 6 -6 11 -50 12 -98 1 -83 2 -88 24 -91 12 -2 26
-14 31 -28 6 -14 18 -24 29 -24 10 0 26 -11 35 -25 9 -14 39 -39 66 -56 28
-17 50 -35 50 -39 0 -11 62 -70 73 -70 13 0 46 41 62 77 8 18 19 33 24 33 15
0 51 41 51 58 0 26 51 83 86 98 19 8 34 20 34 27 0 6 3 22 6 35 5 17 3 23 -7
22 -8 -1 -19 -2 -24 -1 -16 2 -17 55 -1 92 l14 34 95 0 c91 0 96 1 145 35 65
44 110 126 118 215 3 33 6 64 7 70 4 23 -92 1 -185 -41 -102 -46 -169 -87
-205 -126 -26 -28 -46 -109 -38 -158 5 -29 1 -40 -20 -62 -14 -16 -31 -28 -36
-28 -6 0 -8 -8 -5 -17 4 -9 2 -19 -4 -23 -6 -4 -13 -26 -15 -50 -4 -45 -43
-96 -75 -100 -56 -8 -80 1 -96 33 -9 17 -20 34 -24 37 -4 3 -9 18 -12 34 -5
22 1 38 21 63 14 18 32 33 39 33 14 0 14 2 6 24 -7 17 -33 11 -51 -12 -12 -14
-13 -14 -13 1 0 9 5 17 11 17 8 0 8 4 1 13 -7 8 -7 17 2 30 18 23 30 22 23 -4
-4 -16 -1 -20 16 -17 13 2 21 9 20 18 -4 22 46 40 74 27 29 -13 45 -5 63 29 8
16 34 52 57 81 24 28 43 53 43 56 0 2 -18 7 -40 11 -44 7 -80 -14 -80 -46 0
-35 -19 -27 -41 17 -22 44 -22 46 -5 63 18 16 18 16 14 -11 -6 -31 9 -48 18
-20 3 10 10 26 15 35 5 10 9 31 9 47 0 18 6 31 17 35 15 6 15 8 3 16 -15 9
-13 11 13 14 6 1 11 9 9 19 -3 18 9 64 32 122 23 57 48 130 58 173 5 24 12 41
14 39 8 -8 6 -444 -1 -468 l-7 -22 32 19 c24 14 37 32 48 64 8 25 25 68 37 95
22 49 39 135 39 207 0 20 4 34 8 32 4 -3 8 -1 8 5 0 6 7 8 15 5 8 -4 15 -12
15 -20 0 -20 23 -17 43 6 9 11 21 20 26 20 18 0 21 -18 5 -31 -25 -20 -46 -68
-39 -89 6 -20 35 -28 35 -10 0 5 16 26 36 46 26 26 39 32 44 23 12 -18 1 -39
-20 -39 -19 0 -36 -17 -27 -27 10 -9 77 38 71 49 -4 6 -3 9 2 5 5 -3 18 1 29
9 19 14 19 16 2 25 -13 8 -15 14 -8 23 7 8 5 12 -9 13 -11 1 -22 -2 -25 -8
-13 -20 -26 -8 -20 20 4 21 2 30 -9 34 -9 4 -15 17 -14 29 1 13 -2 32 -5 43
-5 15 2 31 26 58 19 20 38 37 42 37 5 0 4 -5 -3 -12 -9 -9 -9 -15 0 -25 8 -10
8 -17 0 -25 -14 -14 -16 -68 -3 -68 5 0 14 7 21 15 7 8 8 15 2 15 -5 0 -8 21
-7 48 3 62 4 64 13 58 11 -7 105 47 108 62 1 7 0 8 -3 2 -2 -5 -11 -10 -18
-10 -7 0 -16 -6 -19 -12 -5 -10 -7 -10 -12 0 -3 6 -10 10 -14 7 -5 -3 -11 -1
-14 3 -8 13 72 81 97 82 4 0 7 -5 7 -11z m-108 -51 c-6 -6 -15 -8 -19 -4 -4 4
-1 11 7 16 19 12 27 3 12 -12z m-496 -13 c-3 -9 -11 -13 -16 -10 -8 5 -7 11 1
21 14 18 24 11 15 -11z m354 -5 c0 -15 -23 -60 -31 -60 -4 0 -2 16 4 35 9 32
27 48 27 25z m127 -12 c7 -5 10 -15 7 -20 -3 -5 -13 -1 -21 9 -8 10 -12 12 -8
6 3 -7 1 -13 -5 -13 -6 0 -35 -26 -65 -57 -30 -32 -57 -54 -60 -51 -4 3 3 16
14 27 12 12 21 27 21 35 0 8 10 22 22 30 12 9 18 19 14 23 -4 4 -13 0 -20 -10
-7 -9 -17 -17 -21 -17 -5 0 1 10 13 23 23 24 87 34 109 15z m-1581 -40 c5 -8
2 -9 -10 -5 -10 4 -22 7 -27 7 -5 0 -9 7 -9 15 0 12 4 14 19 5 11 -5 23 -15
27 -22z m-61 -39 c15 -29 15 -32 -1 -50 -11 -12 -30 -19 -52 -19 -34 0 -35 -1
-16 -15 10 -8 14 -15 7 -15 -7 0 -24 11 -39 25 -15 14 -31 25 -36 25 -11 0
-38 25 -38 35 0 4 28 5 63 2 34 -2 56 -2 50 0 -20 7 -15 23 8 23 11 0 17 5 14
10 -3 6 1 10 9 10 9 0 23 -14 31 -31z m1451 -6 c-11 -11 -17 4 -9 23 7 18 8
18 11 1 2 -10 1 -21 -2 -24z m-1401 17 c3 -5 2 -10 -4 -10 -5 0 -13 5 -16 10
-3 6 -2 10 4 10 5 0 13 -4 16 -10z m1046 -85 l-9 -40 -1 46 c-1 25 2 49 7 53
12 12 13 -16 3 -59z m-947 9 c5 -14 4 -15 -9 -4 -17 14 -19 20 -6 20 5 0 12
-7 15 -16z m-14 -34 c0 13 52 1 70 -16 11 -10 11 -14 1 -14 -8 0 -10 -7 -6
-21 5 -16 3 -20 -6 -17 -8 3 -14 11 -14 19 0 8 -20 20 -47 29 -27 8 -48 18
-48 22 0 4 11 3 25 -2 15 -6 25 -6 25 0z m930 -44 c-7 -7 -10 1 -9 25 0 32 1
33 10 10 6 -16 6 -28 -1 -35z m390 51 c0 -2 -11 -18 -25 -37 -27 -36 -36 -20
-9 18 13 18 34 30 34 19z m-632 -49 c-4 -27 -28 -36 -28 -10 0 20 8 32 22 32
5 0 8 -10 6 -22z m-705 6 c3 -3 3 -12 0 -19 -4 -11 -10 -11 -29 -3 -13 6 -21
15 -18 19 6 10 38 12 47 3z m1427 -3 c0 -11 -31 -24 -39 -16 -3 3 1 10 9 15
19 12 30 12 30 1z m-1459 -44 c-7 -7 -16 -5 -31 8 -30 27 -24 36 11 18 22 -11
28 -18 20 -26z m582 -11 c6 -64 38 -176 49 -176 4 0 8 5 8 10 0 6 4 10 9 10
15 0 34 -59 27 -86 -5 -19 -2 -30 10 -39 13 -9 15 -19 9 -41 -15 -56 -13 -62
22 -69 18 -3 33 -10 33 -15 0 -6 7 -10 15 -10 23 0 18 -16 -11 -28 -18 -9 -31
-9 -45 -1 -15 8 -24 7 -35 -2 -26 -21 -64 27 -69 87 -8 88 -14 134 -19 152 -3
9 -7 42 -11 72 -10 95 -16 130 -26 136 -5 3 -9 12 -9 20 0 8 5 12 10 9 6 -3
10 1 10 9 0 9 4 16 9 16 4 0 11 -24 14 -54z m-483 -41 c0 -9 10 -19 22 -24 16
-6 18 -10 9 -16 -8 -5 -24 4 -44 24 -30 29 -30 31 -9 31 13 0 22 -6 22 -15z
m151 -2 c13 -15 12 -15 -8 -4 -24 12 -29 21 -14 21 5 0 15 -7 22 -17z m1269 7
c0 -5 -5 -10 -11 -10 -5 0 -7 5 -4 10 3 6 8 10 11 10 2 0 4 -4 4 -10z m-1589
-11 c11 -5 17 -14 14 -18 -6 -11 41 -43 58 -39 20 3 55 -12 61 -27 7 -19 6
-19 -46 2 -45 17 -118 70 -118 85 0 11 7 10 31 -3z m166 -55 c-5 -5 -57 13
-57 20 0 3 14 0 31 -6 16 -6 28 -12 26 -14z m178 9 c11 -3 34 -19 51 -35 37
-35 53 -22 22 17 l-21 28 21 -12 c17 -9 22 -9 22 1 0 7 6 4 12 -7 6 -11 17
-23 23 -27 7 -4 16 -20 20 -35 7 -28 28 -82 46 -115 6 -13 5 -18 -3 -18 -7 0
-5 -5 5 -11 17 -10 46 -66 53 -101 6 -28 -12 -30 -93 -9 -43 11 -103 22 -133
26 -60 6 -120 25 -120 36 0 4 -18 10 -40 14 -22 4 -38 11 -34 16 3 5 0 9 -6 9
-6 0 -8 5 -5 10 3 6 -3 10 -14 10 -12 0 -21 5 -21 10 0 6 11 10 24 10 13 0 32
3 41 6 13 5 14 8 3 15 -9 6 -7 9 8 9 12 0 27 -6 33 -13 6 -8 43 -19 83 -26 40
-7 81 -14 90 -16 14 -2 16 1 8 15 -14 26 -13 28 16 22 29 -5 28 4 -4 41 -10
12 -11 17 -3 17 7 0 9 5 6 10 -3 6 -17 10 -31 10 -14 0 -23 4 -19 10 13 21 -7
49 -50 70 -43 21 -64 40 -27 25 9 -4 26 -10 37 -12z m-60 -13 c3 -5 -1 -10 -9
-10 -8 0 -18 5 -21 10 -3 6 1 10 9 10 8 0 18 -4 21 -10z m1575 -12 c0 -7 -4
-18 -8 -24 -8 -13 -44 -15 -36 -2 3 4 12 8 19 8 9 0 12 6 9 15 -4 8 -1 15 5
15 6 0 11 -6 11 -12z m-1731 -34 c17 -4 28 -10 26 -14 -5 -8 -62 4 -73 15 -7
7 9 6 47 -1z m-134 -14 c17 -7 15 -9 -12 -9 -18 -1 -33 -5 -33 -11 0 -5 -5
-10 -10 -10 -6 0 -5 8 2 20 14 22 22 23 53 10z m1851 -27 c-10 -10 -19 5 -10
18 6 11 8 11 12 0 2 -7 1 -15 -2 -18z m-1746 -13 c18 -12 2 -12 -25 0 -13 6
-15 9 -5 9 8 0 22 -4 30 -9z m220 -6 c0 -2 -17 -4 -37 -3 -33 1 -35 2 -13 8
23 7 50 4 50 -5z m-127 -11 c-13 -2 -33 -2 -45 0 -13 2 -3 4 22 4 25 0 35 -2
23 -4z m-196 -29 c-3 -3 -12 -4 -19 -1 -8 3 -5 6 6 6 11 1 17 -2 13 -5z m-22
-24 c-3 -5 -12 -10 -18 -10 -7 0 -6 4 3 10 19 12 23 12 15 0z m60 -30 c4 -6
-5 -10 -19 -10 -14 0 -26 5 -26 10 0 6 9 10 19 10 11 0 23 -4 26 -10z m-15
-50 c0 -5 -12 -10 -27 -10 -22 0 -25 2 -13 10 20 13 40 13 40 0z m1370 -34 c0
-8 -4 -18 -10 -21 -5 -3 -10 3 -10 14 0 12 5 21 10 21 6 0 10 -6 10 -14z
m-1086 -98 c25 -69 113 -140 163 -132 12 2 25 -1 29 -7 5 -8 -9 -10 -49 -7
-101 8 -176 84 -177 178 0 41 11 31 34 -32z m207 39 c-1 -12 -15 -9 -19 4 -3
6 1 10 8 8 6 -3 11 -8 11 -12z m953 -78 c-34 -38 -99 -62 -153 -57 -52 5 -111
39 -111 65 0 12 7 9 26 -11 53 -53 125 -51 209 4 46 31 57 30 29 -1z m-697
-47 c6 -4 13 -19 15 -32 2 -14 7 -31 12 -38 5 -9 3 -20 -7 -30 -14 -13 -19
-13 -32 -2 -9 8 -14 21 -12 30 2 10 0 24 -4 33 -9 15 -2 47 10 47 3 0 11 -4
18 -8z m-564 -59 c-7 -2 -21 -2 -30 0 -10 3 -4 5 12 5 17 0 24 -2 18 -5z m-63
-63 c0 -5 -5 -10 -11 -10 -5 0 -7 5 -4 10 3 6 8 10 11 10 2 0 4 -4 4 -10z
m107 4 c-3 -3 -12 -4 -19 -1 -8 3 -5 6 6 6 11 1 17 -2 13 -5z m608 -4 c3 -6
-1 -7 -9 -4 -18 7 -21 14 -7 14 6 0 13 -4 16 -10z m-562 -95 c-3 -9 -8 -14
-10 -11 -3 3 -2 9 2 15 9 16 15 13 8 -4z m-353 -59 c0 -11 -19 -15 -25 -6 -3
5 1 10 9 10 9 0 16 -2 16 -4z m275 -75 c-3 -6 -11 -11 -16 -11 -5 0 -4 6 3 14
14 16 24 13 13 -3z m-450 -20 c-3 -5 2 -17 11 -25 16 -17 12 -76 -6 -76 -9 0
-23 18 -26 35 -2 6 -6 25 -9 43 -7 28 -5 32 14 32 12 0 20 -4 16 -9z m476 -16
c-1 -15 -24 -12 -29 3 -3 9 2 13 12 10 10 -1 17 -7 17 -13z m-466 -115 c4 -6
-5 -10 -20 -10 -15 0 -24 4 -20 10 3 6 12 10 20 10 8 0 17 -4 20 -10z m1836
-217 c13 -16 12 -17 -3 -4 -17 13 -22 21 -14 21 2 0 10 -8 17 -17z m71 -26
c31 -30 62 -67 57 -67 -3 0 -25 20 -49 45 -44 45 -51 65 -8 22z"/>
<path d="M2217 2443 c-4 -3 -7 -11 -7 -17 0 -6 5 -5 12 2 6 6 9 14 7 17 -3 3
-9 2 -12 -2z"/>
<path d="M2365 2299 c-4 -6 -5 -13 -2 -16 7 -7 27 6 27 18 0 12 -17 12 -25 -2z"/>
<path d="M2495 2270 c3 -5 8 -10 11 -10 2 0 4 5 4 10 0 6 -5 10 -11 10 -5 0
-7 -4 -4 -10z"/>
<path d="M2307 2233 c-4 -3 -7 -11 -7 -17 0 -6 5 -5 12 2 6 6 9 14 7 17 -3 3
-9 2 -12 -2z"/>
<path d="M2134 2146 c-10 -8 -16 -17 -13 -20 7 -7 69 16 69 26 0 13 -35 9 -56
-6z"/>
<path d="M2086 2098 c-18 -41 -12 -48 14 -18 22 26 25 36 10 45 -6 4 -17 -9
-24 -27z"/>
<path d="M2316 1833 c-6 -14 -5 -15 5 -6 7 7 10 15 7 18 -3 3 -9 -2 -12 -12z"/>
<path d="M2280 1778 c0 -10 -7 -18 -15 -18 -7 0 -18 -6 -22 -14 -8 -15 -180
-106 -200 -106 -6 0 -15 -5 -19 -11 -4 -7 3 -10 18 -8 14 2 32 -4 42 -14 22
-21 29 -21 69 0 27 15 29 18 12 21 -43 7 -51 12 -35 22 8 6 27 10 42 10 18 0
29 7 33 20 4 11 11 18 16 14 5 -3 26 4 45 15 19 12 44 21 54 21 28 0 34 18 8
23 l-23 4 23 2 c20 1 26 9 20 29 -2 4 -18 7 -35 7 -25 0 -33 -4 -33 -17z"/>
<path d="M1995 1590 c3 -5 -1 -10 -10 -10 -12 0 -14 -4 -7 -16 6 -10 26 -17
53 -20 36 -2 47 1 57 16 10 17 8 20 -26 30 -47 13 -75 13 -67 0z m32 -26 c-3
-3 -12 -4 -19 -1 -8 3 -5 6 6 6 11 1 17 -2 13 -5z"/>
<path d="M964 1578 c-4 -6 -3 -8 4 -4 5 3 12 1 14 -6 5 -13 28 -2 28 13 0 13
-37 11 -46 -3z"/>
<path d="M1060 1547 c0 -13 -6 -29 -12 -37 -9 -9 -5 -9 13 2 17 11 31 13 40 7
11 -7 11 -9 -3 -9 -25 0 -29 -13 -16 -48 12 -30 26 -40 101 -62 30 -10 37 3
10 19 -15 8 -14 12 15 28 35 20 56 51 22 33 -11 -6 -20 -7 -20 -1 0 5 7 11 15
15 8 3 15 12 15 19 0 26 -23 36 -60 27 -19 -4 -29 -8 -21 -9 8 -1 12 -3 10 -6
-10 -10 -79 17 -79 30 0 8 -7 15 -15 15 -9 0 -15 -9 -15 -23z m145 -27 c-3 -5
-12 -10 -18 -10 -7 0 -6 4 3 10 19 12 23 12 15 0z"/>
<path d="M1138 1553 c6 -2 18 -2 25 0 6 3 1 5 -13 5 -14 0 -19 -2 -12 -5z"/>
<path d="M1258 1453 c-24 -6 -23 -23 0 -23 10 0 19 7 19 15 0 8 -1 14 -1 14
-1 -1 -9 -3 -18 -6z"/>
<path d="M1890 1340 c0 -5 7 -10 16 -10 8 0 12 5 9 10 -3 6 -10 10 -16 10 -5
0 -9 -4 -9 -10z"/>
<path d="M1940 1340 c-13 -8 -12 -10 3 -10 9 0 17 5 17 10 0 12 -1 12 -20 0z"/>
<path d="M1282 1298 c-20 -20 -14 -31 13 -24 14 4 34 1 45 -6 17 -11 22 -10
30 2 5 8 10 21 10 28 0 15 -32 16 -48 0 -8 -8 -15 -8 -25 0 -10 9 -16 9 -25 0z"/>
<path d="M735 1210 c-18 -20 -13 -24 17 -12 11 4 14 12 9 20 -6 9 -12 8 -26
-8z"/>
</g>
</svg>
